<?xml version="1.0" standalone="no"?><!DOCTYPE svg PUBLIC "-//W3C//DTD SVG 1.1//EN" "http://www.w3.org/Graphics/SVG/1.1/DTD/svg11.dtd"><svg t="1657526344293" class="icon" viewBox="0 0 1024 1024" version="1.1" xmlns="http://www.w3.org/2000/svg" p-id="30981" xmlns:xlink="http://www.w3.org/1999/xlink" width="48" height="48"><defs><style type="text/css">@font-face { font-family: feedback-iconfont; src: url("//at.alicdn.com/t/font_1031158_u69w8yhxdu.woff2?t=1630033759944") format("woff2"), url("//at.alicdn.com/t/font_1031158_u69w8yhxdu.woff?t=1630033759944") format("woff"), url("//at.alicdn.com/t/font_1031158_u69w8yhxdu.ttf?t=1630033759944") format("truetype"); }
</style></defs><path d="M546.4 266.3h-69.6v199h-413V305.6c0-25.2 20.1-45.3 45.4-45.3h188.2c-50.6-10.5-88.4-32.2-89.9-72.2-1.4-47 51.7-123.1 129.1-105.7 80 18 135.9 79.9 178.7 132.9 43.2-54 104.4-123.7 187.8-134.7 69.8-8.8 127.4 60.8 120 106.8-6.3 40.3-44.9 62.2-94.2 72.8h185.8c25.2 0 45.4 20.2 45.4 45.3v159.7H547.3m-202.1-341c-38.6-15.2-61.2 1.1-77.5 28-8.9 15.2-18.3 35.4-4.2 50.1 37.1 38.2 139 35.4 207.4 28.3-32.4-40.2-72-85.2-125.7-106.4zM767.3 202c26.6-34-25.5-104.6-81.4-78.6-53.5 25.2-92 66.1-125.2 106.5 28.6 2.5 57.6 3.1 86.4 1.7 35-1.4 99.7-3.8 120.2-29.6zM112.5 501.9v289.3c0 89.5 73.3 162.8 162.8 162.8h202V501.9H112.5zM546.7 501.9V954h202.1c89.5 0 162.8-73.3 162.8-162.8V501.9H546.7z" fill="#1E6FFF" p-id="30982"></path></svg>