<?xml version="1.0" standalone="no"?><!DOCTYPE svg PUBLIC "-//W3C//DTD SVG 1.1//EN" "http://www.w3.org/Graphics/SVG/1.1/DTD/svg11.dtd"><svg t="1657524553437" class="icon" viewBox="0 0 1024 1024" version="1.1" xmlns="http://www.w3.org/2000/svg" p-id="25364" xmlns:xlink="http://www.w3.org/1999/xlink" width="48" height="48"><defs><style type="text/css">@font-face { font-family: feedback-iconfont; src: url("//at.alicdn.com/t/font_1031158_u69w8yhxdu.woff2?t=1630033759944") format("woff2"), url("//at.alicdn.com/t/font_1031158_u69w8yhxdu.woff?t=1630033759944") format("woff"), url("//at.alicdn.com/t/font_1031158_u69w8yhxdu.ttf?t=1630033759944") format("truetype"); }
</style></defs><path d="M768 128a170.666667 170.666667 0 0 1 170.666667 170.666667v426.666666a170.666667 170.666667 0 0 1-170.666667 170.666667H256a170.666667 170.666667 0 0 1-170.666667-170.666667V298.666667a170.666667 170.666667 0 0 1 170.666667-170.666667h512z m0 85.333333H256a85.333333 85.333333 0 0 0-85.12 78.933334L170.666667 298.666667v426.666666a85.333333 85.333333 0 0 0 78.933333 85.12L256 810.666667h512a85.333333 85.333333 0 0 0 85.12-78.933334L853.333333 725.333333V298.666667a85.333333 85.333333 0 0 0-78.933333-85.12L768 213.333333z m-42.666667 426.666667a42.666667 42.666667 0 0 1 0 85.333333h-85.333333a42.666667 42.666667 0 0 1 0-85.333333h85.333333z m-85.333333-341.333333a42.666667 42.666667 0 0 1 0 85.333333h-128v298.666667a42.666667 42.666667 0 0 1-85.333333 0V384H298.666667a42.666667 42.666667 0 1 1 0-85.333333h341.333333z" fill="#1E6FFF" p-id="25365"></path></svg>